# xmcd
#
# Track frame offsets: 
#        150
#        14512
#        35840
#        55047
#        72990
#        77380
#        97370
#        116415
#        122065
#        141867
#        163472
#        177867
#        194460
#        212115
#        234147
#        251527
#        267040
#        282190
#
# Disc length: 3966 seconds
#
# Revision: 0
# Processed by: cddbd v1.5.2PL0 Copyright (c) Steve Scherf et al.
# Submitted via: ExactAudioCopy v0.95b4
#
DISCID=060f7c12
DTITLE=Trin-I-Tee 5:7 - The Kiss
DYEAR=2002
DGENRE=Gospel
TTITLE0=Holla <Urban Remix>
TTITLE1=Lord
TTITLE2=With A Kiss
TTITLE3=Dance Like Sumday
TTITLE4=Interlude (What He Wants)
TTITLE5=What He Wants
TTITLE6=People Get Ready
TTITLE7=Interlude (Sixteen Again)
TTITLE8=Sixteen Again
TTITLE9=The One For Me
TTITLE10=Rescue Me
TTITLE11=Here 4U
TTITLE12=I Wish
TTITLE13=Greater Than You And Me
TTITLE14=All Of My Life
TTITLE15=Holla
TTITLE16=Holla <Dance Mix>
TTITLE17=Holla <Quiet Mix>
EXTD=
EXTT0=
EXTT1=
EXTT2=
EXTT3=
EXTT4=
EXTT5=
EXTT6=
EXTT7=
EXTT8=
EXTT9=
EXTT10=
EXTT11=
EXTT12=
EXTT13=
EXTT14=
EXTT15=
EXTT16=
EXTT17=
PLAYORDER=
